<svg width="33" height="33" viewBox="0 0 33 33" fill="none" xmlns="http://www.w3.org/2000/svg">
<path d="M26.1531 4.61572C26.8606 4.61572 27.5394 4.89678 28.0398 5.39697C28.5403 5.89746 28.822 6.57687 28.822 7.28467V25.9653C28.822 26.6731 28.5403 27.3525 28.0398 27.853C27.5393 28.3533 26.8607 28.6343 26.1531 28.6343H7.47144C6.76382 28.6341 6.08509 28.3534 5.58472 27.853C5.08423 27.3525 4.80347 26.6731 4.80347 25.9653V7.28467C4.80347 6.57687 5.08423 5.89746 5.58472 5.39697C6.08507 4.89671 6.7639 4.61585 7.47144 4.61572H26.1531ZM8.1394 25.2983H11.8357V14.1304H8.1394V25.2983ZM21.1355 13.8765C20.0014 13.8766 18.6802 14.5702 18.0398 15.6108V14.1304H14.3171V25.2983H18.0398V18.7202C18.0398 17.6927 18.8678 16.8521 19.8953 16.8521C20.3905 16.8521 20.8653 17.0488 21.2156 17.3989C21.5659 17.7493 21.7634 18.2248 21.7634 18.7202V25.2983H25.4861V18.2261C25.486 17.0725 25.0273 15.9666 24.2117 15.1509C23.3959 14.3351 22.2892 13.8765 21.1355 13.8765ZM9.98022 7.5376C9.38225 7.53768 8.80833 7.77589 8.3855 8.19873C7.96278 8.62161 7.72534 9.19551 7.72534 9.79346C7.7255 11.0342 8.7395 12.0345 9.98022 12.0347C10.5748 12.0347 11.1458 11.7988 11.5662 11.3784C11.9864 10.9581 12.2223 10.3878 12.2224 9.79346C12.2224 8.55249 11.2212 7.5376 9.98022 7.5376Z" fill="white"/>
</svg>
