<svg width="33" height="33" viewBox="0 0 33 33" fill="none" xmlns="http://www.w3.org/2000/svg">
<path d="M22.167 3.28125C26.4368 3.28137 29.9062 6.75064 29.9062 11.0205V22.2295C29.9062 24.282 29.091 26.2508 27.6396 27.7021C26.1883 29.1535 24.2195 29.9687 22.167 29.9688H10.958C6.68805 29.9687 3.2188 26.4994 3.21875 22.2295V11.0205C3.21879 8.96795 4.03397 6.99923 5.48535 5.54785C6.93676 4.09648 8.90543 3.28126 10.958 3.28125H22.167ZM10.6914 5.9502C9.41737 5.9502 8.19482 6.45654 7.29395 7.35742C6.39333 8.25826 5.8877 9.48007 5.8877 10.7539V22.4961C5.8877 25.1515 8.036 27.2998 10.6914 27.2998H22.4336C23.7076 27.2998 24.9292 26.7935 25.8301 25.8926C26.7309 24.9917 27.2373 23.7701 27.2373 22.4961V10.7539C27.2373 8.0985 25.089 5.9502 22.4336 5.9502H10.6914ZM16.5625 9.95312C18.332 9.95315 20.0291 10.656 21.2803 11.9072C22.5315 13.1584 23.2344 14.8555 23.2344 16.625C23.2344 18.3945 22.5315 20.0916 21.2803 21.3428C20.0291 22.594 18.332 23.2969 16.5625 23.2969C14.793 23.2969 13.0959 22.594 11.8447 21.3428C10.5935 20.0916 9.89062 18.3945 9.89062 16.625C9.89063 14.8555 10.5935 13.1584 11.8447 11.9072C13.0959 10.656 14.793 9.95312 16.5625 9.95312ZM16.5625 12.6221C15.5008 12.6221 14.4822 13.0433 13.7314 13.7939C12.9807 14.5447 12.5596 15.5633 12.5596 16.625C12.5596 17.6867 12.9807 18.7053 13.7314 19.4561C14.4822 20.2068 15.5008 20.6279 16.5625 20.6279C17.624 20.6279 18.6419 20.2065 19.3926 19.4561C20.1433 18.7053 20.5654 17.6867 20.5654 16.625C20.5654 15.5633 20.1433 14.5447 19.3926 13.7939C18.6419 13.0435 17.6239 12.6221 16.5625 12.6221ZM23.5684 7.95117C24.0106 7.9513 24.4344 8.12774 24.7471 8.44043C25.0598 8.75313 25.2362 9.17693 25.2363 9.61914C25.2363 10.0615 25.0599 10.486 24.7471 10.7988C24.4344 11.1115 24.0105 11.287 23.5684 11.2871C23.126 11.2871 22.7015 11.1116 22.3887 10.7988C22.0759 10.486 21.9004 10.0615 21.9004 9.61914C21.9005 9.17693 22.076 8.75313 22.3887 8.44043C22.7015 8.12762 23.126 7.95117 23.5684 7.95117Z" fill="white"/>
</svg>
