<svg width="33" height="33" viewBox="0 0 33 33" fill="none" xmlns="http://www.w3.org/2000/svg">
<path d="M16.1875 7.28467C21.7785 7.28467 25.2613 7.49796 26.6357 7.87158C27.8366 8.20519 28.6107 8.9793 28.9443 10.1802C29.1178 10.8073 29.2373 11.648 29.3174 12.7153C29.4108 13.7828 29.4512 14.7038 29.4512 15.5044L29.5312 16.6255C29.5312 19.5477 29.318 21.6964 28.9443 23.0708C28.6107 24.2715 27.8364 25.0448 26.6357 25.3784C26.0086 25.5519 24.8609 25.6724 23.0996 25.7524C21.3649 25.8458 19.7764 25.8862 18.3086 25.8862L16.1875 25.9663C10.5965 25.9663 7.11366 25.752 5.73926 25.3784C4.5385 25.0448 3.7643 24.2715 3.43066 23.0708C3.2572 22.4436 3.13768 21.6022 3.05762 20.5347C2.96425 19.4675 2.92384 18.547 2.92383 17.7466L2.84375 16.6255C2.84375 13.7032 3.05704 11.5546 3.43066 10.1802C3.76427 8.97929 4.53835 8.20517 5.73926 7.87158C6.36643 7.69812 7.51409 7.57859 9.27539 7.49854C11.0099 7.40514 12.5977 7.36475 14.0654 7.36475L16.1875 7.28467ZM13.5186 20.6284L20.4443 16.6255L13.5186 12.6226V20.6284Z" fill="white"/>
</svg>
