<svg width="33" height="33" viewBox="0 0 33 33" fill="none" xmlns="http://www.w3.org/2000/svg">
<path d="M26.153 4.61548C26.8605 4.61548 27.5392 4.89654 28.0397 5.39673C28.5402 5.89722 28.8219 6.57663 28.8219 7.28442V25.9651C28.8219 26.6729 28.5402 27.3523 28.0397 27.8528C27.5392 28.3531 26.8606 28.634 26.153 28.634H7.47131C6.7637 28.6339 6.08497 28.3531 5.58459 27.8528C5.08411 27.3523 4.80334 26.6729 4.80334 25.9651V7.28442C4.80334 6.57663 5.08411 5.89722 5.58459 5.39673C6.08495 4.89647 6.76378 4.61561 7.47131 4.61548H26.153ZM8.13928 25.2981H11.8356V14.1301H8.13928V25.2981ZM21.1354 13.8762C20.0013 13.8764 18.6801 14.5699 18.0397 15.6106V14.1301H14.317V25.2981H18.0397V18.72C18.0397 17.6925 18.8677 16.8518 19.8951 16.8518C20.3903 16.8519 20.8652 17.0486 21.2155 17.3987C21.5658 17.749 21.7633 18.2245 21.7633 18.72V25.2981H25.486V18.2258C25.4859 17.0723 25.0272 15.9663 24.2115 15.1506C23.3958 14.3348 22.2891 13.8762 21.1354 13.8762ZM9.9801 7.53735C9.38213 7.53744 8.80821 7.77565 8.38538 8.19849C7.96265 8.62137 7.72522 9.19527 7.72522 9.79321C7.72538 11.0339 8.73938 12.0342 9.9801 12.0344C10.5747 12.0344 11.1456 11.7986 11.566 11.3782C11.9863 10.9578 12.2222 10.3876 12.2223 9.79321C12.2223 8.55224 11.2211 7.53735 9.9801 7.53735Z" fill="white"/>
</svg>
