<svg width="33" height="33" viewBox="0 0 33 33" fill="none" xmlns="http://www.w3.org/2000/svg">
<path d="M22.1669 3.28125C26.4367 3.28137 29.9061 6.75064 29.9061 11.0205V22.2295C29.9061 24.282 29.0909 26.2508 27.6395 27.7021C26.1882 29.1535 24.2194 29.9687 22.1669 29.9688H10.9579C6.68793 29.9687 3.21868 26.4994 3.21863 22.2295V11.0205C3.21867 8.96795 4.03385 6.99923 5.48523 5.54785C6.93663 4.09648 8.90531 3.28126 10.9579 3.28125H22.1669ZM10.6913 5.9502C9.41725 5.9502 8.1947 6.45654 7.29382 7.35742C6.39321 8.25826 5.88757 9.48007 5.88757 10.7539V22.4961C5.88757 25.1515 8.03588 27.2998 10.6913 27.2998H22.4335C23.7075 27.2998 24.9291 26.7935 25.83 25.8926C26.7308 24.9917 27.2372 23.7701 27.2372 22.4961V10.7539C27.2372 8.0985 25.0889 5.9502 22.4335 5.9502H10.6913ZM16.5624 9.95312C18.3318 9.95315 20.029 10.656 21.2802 11.9072C22.5313 13.1584 23.2342 14.8555 23.2343 16.625C23.2343 18.3945 22.5313 20.0916 21.2802 21.3428C20.029 22.594 18.3318 23.2969 16.5624 23.2969C14.7929 23.2969 13.0958 22.594 11.8446 21.3428C10.5934 20.0916 9.8905 18.3945 9.8905 16.625C9.89051 14.8555 10.5934 13.1584 11.8446 11.9072C13.0958 10.656 14.7929 9.95312 16.5624 9.95312ZM16.5624 12.6221C15.5007 12.6221 14.482 13.0433 13.7313 13.7939C12.9806 14.5447 12.5595 15.5633 12.5594 16.625C12.5594 17.6867 12.9806 18.7053 13.7313 19.4561C14.4821 20.2068 15.5007 20.6279 16.5624 20.6279C17.6238 20.6279 18.6418 20.2065 19.3925 19.4561C20.1432 18.7053 20.5653 17.6867 20.5653 16.625C20.5653 15.5633 20.1432 14.5447 19.3925 13.7939C18.6418 13.0435 17.6238 12.6221 16.5624 12.6221ZM23.5682 7.95117C24.0104 7.9513 24.4343 8.12774 24.7469 8.44043C25.0596 8.75313 25.2361 9.17693 25.2362 9.61914C25.2362 10.0615 25.0598 10.486 24.7469 10.7988C24.4343 11.1115 24.0104 11.287 23.5682 11.2871C23.1259 11.2871 22.7014 11.1116 22.3885 10.7988C22.0757 10.486 21.9003 10.0615 21.9003 9.61914C21.9004 9.17693 22.0759 8.75313 22.3885 8.44043C22.7014 8.12762 23.1259 7.95117 23.5682 7.95117Z" fill="white"/>
</svg>
