<svg width="33" height="33" viewBox="0 0 33 33" fill="none" xmlns="http://www.w3.org/2000/svg">
<path d="M16.4374 3.33447C23.7763 3.33453 29.7809 9.32569 29.7811 16.7046C29.7883 19.8879 28.6569 22.9696 26.5917 25.3921C24.5264 27.8145 21.6627 29.4189 18.5184 29.9155V20.5747H21.6278L22.2284 16.7046H18.5184V14.1968C18.5184 13.1426 19.0396 12.1147 20.6942 12.1147H22.3749V8.81885C22.3485 8.81447 20.841 8.56494 19.3993 8.56494C16.3437 8.56506 14.3553 10.4072 14.3553 13.7563V16.7046H10.9667V20.5747H14.3553V29.9155C7.97716 28.9146 3.09363 23.3764 3.09363 16.7046C3.09381 9.32565 9.09843 3.33447 16.4374 3.33447Z" fill="white"/>
</svg>
