<svg width="33" height="33" viewBox="0 0 33 33" fill="none" xmlns="http://www.w3.org/2000/svg">
<path d="M16.1874 7.28442C21.7784 7.28443 25.2612 7.49772 26.6356 7.87134C27.8365 8.20494 28.6106 8.97905 28.9442 10.1799C29.1177 10.807 29.2372 11.6477 29.3173 12.7151C29.4107 13.7826 29.451 14.7035 29.451 15.5042L29.5311 16.6252C29.5311 19.5474 29.3178 21.6962 28.9442 23.0706C28.6106 24.2712 27.8363 25.0446 26.6356 25.3782C26.0085 25.5516 24.8608 25.6721 23.0995 25.7522C21.3648 25.8456 19.7763 25.886 18.3085 25.886L16.1874 25.9661C10.5963 25.9661 7.11354 25.7518 5.73914 25.3782C4.53838 25.0446 3.76418 24.2712 3.43054 23.0706C3.25707 22.4434 3.13756 21.6019 3.0575 20.5344C2.96412 19.4672 2.92372 18.5468 2.92371 17.7463L2.84363 16.6252C2.84363 13.703 3.05692 11.5543 3.43054 10.1799C3.76415 8.97905 4.53823 8.20492 5.73914 7.87134C6.36631 7.69788 7.51397 7.57835 9.27527 7.49829C11.0098 7.40489 12.5976 7.36451 14.0653 7.3645L16.1874 7.28442ZM13.5184 20.6282L20.4442 16.6252L13.5184 12.6223V20.6282Z" fill="white"/>
</svg>
