<svg width="12" height="16" viewBox="0 0 12 16" fill="none" xmlns="http://www.w3.org/2000/svg">
<g clip-path="url(#clip0_163_198)">
<path d="M6.74062 15.6208C8.34375 13.6145 12 8.752 12 6.02075C12 2.70825 9.3125 0.020752 6 0.020752C2.6875 0.020752 0 2.70825 0 6.02075C0 8.752 3.65625 13.6145 5.25938 15.6208C5.64375 16.0989 6.35625 16.0989 6.74062 15.6208ZM6 4.02075C6.53043 4.02075 7.03914 4.23147 7.41421 4.60654C7.78929 4.98161 8 5.49032 8 6.02075C8 6.55119 7.78929 7.05989 7.41421 7.43497C7.03914 7.81004 6.53043 8.02075 6 8.02075C5.46957 8.02075 4.96086 7.81004 4.58579 7.43497C4.21071 7.05989 4 6.55119 4 6.02075C4 5.49032 4.21071 4.98161 4.58579 4.60654C4.96086 4.23147 5.46957 4.02075 6 4.02075Z" fill="#6B7280"/>
</g>
<defs>
<clipPath id="clip0_163_198">
<rect width="12" height="16" fill="white"/>
</clipPath>
</defs>
</svg>
