<svg width="10" height="16" viewBox="0 0 10 16" fill="none" xmlns="http://www.w3.org/2000/svg">
<path d="M10 16H0V0H10V16Z" stroke="#E5E7EB"/>
<path d="M4.29341 1.29199C4.68404 0.901367 5.31841 0.901367 5.70904 1.29199L9.70904 5.29199C9.99654 5.57949 10.0809 6.00762 9.92466 6.38262C9.76841 6.75762 9.40591 7.00137 8.99966 7.00137H0.999664C0.596539 7.00137 0.230914 6.75762 0.0746645 6.38262C-0.0815855 6.00762 0.00591448 5.57949 0.290289 5.29199L4.29029 1.29199H4.29341ZM4.29341 14.7076L0.293414 10.7076C0.00591448 10.4201 -0.0784605 9.99199 0.0777895 9.61699C0.234039 9.24199 0.596539 8.99824 1.00279 8.99824H8.99966C9.40279 8.99824 9.76841 9.24199 9.92466 9.61699C10.0809 9.99199 9.99341 10.4201 9.70904 10.7076L5.70904 14.7076C5.31841 15.0982 4.68404 15.0982 4.29341 14.7076Z" fill="black"/>
</svg>
