<svg width="13" height="16" viewBox="0 0 13 16" fill="none" xmlns="http://www.w3.org/2000/svg">
<path d="M7.19366 15.6205C8.81049 13.6143 12.498 8.75176 12.498 6.02051C12.498 2.70801 9.78753 0.0205078 6.4467 0.0205078C3.10587 0.0205078 0.395386 2.70801 0.395386 6.02051C0.395386 8.75176 4.08291 13.6143 5.69974 15.6205C6.0874 16.0986 6.806 16.0986 7.19366 15.6205ZM6.4467 4.02051C6.98167 4.02051 7.49473 4.23122 7.87301 4.60629C8.25129 4.98137 8.4638 5.49007 8.4638 6.02051C8.4638 6.55094 8.25129 7.05965 7.87301 7.43472C7.49473 7.80979 6.98167 8.02051 6.4467 8.02051C5.91173 8.02051 5.39867 7.80979 5.02039 7.43472C4.64211 7.05965 4.42959 6.55094 4.42959 6.02051C4.42959 5.49007 4.64211 4.98137 5.02039 4.60629C5.39867 4.23122 5.91173 4.02051 6.4467 4.02051Z" fill="#042F3E"/>
</svg>
