<svg width="33" height="33" viewBox="0 0 33 33" fill="none" xmlns="http://www.w3.org/2000/svg">
<path d="M16.4375 3.33496C23.7764 3.33501 29.7811 9.32617 29.7812 16.7051C29.7884 19.8884 28.657 22.9701 26.5918 25.3926C24.5266 27.815 21.6628 29.4194 18.5186 29.916V20.5752H21.6279L22.2285 16.7051H18.5186V14.1973C18.5186 13.1431 19.0397 12.1152 20.6943 12.1152H22.375V8.81934C22.3486 8.81496 20.8411 8.56543 19.3994 8.56543C16.3439 8.56555 14.3555 10.4077 14.3555 13.7568V16.7051H10.9668V20.5752H14.3555V29.916C7.97728 28.9151 3.09375 23.3769 3.09375 16.7051C3.09394 9.32614 9.09855 3.33496 16.4375 3.33496Z" fill="white"/>
</svg>
