<svg width="48" height="47" viewBox="0 0 48 47" fill="none" xmlns="http://www.w3.org/2000/svg">
<rect x="0.666748" y="0.166748" width="46.6667" height="46.6667" rx="23.3333" fill="#042F3E"/>
<path d="M24.0077 24.8844H20.5532V23.0706H24.0077C24.6092 23.0706 25.0953 22.9733 25.466 22.7789C25.8366 22.5844 26.107 22.3171 26.2772 21.9768C26.4534 21.6305 26.5415 21.2355 26.5415 20.7919C26.5415 20.3726 26.4534 19.9807 26.2772 19.6161C26.107 19.2455 25.8366 18.9477 25.466 18.7229C25.0953 18.4981 24.6092 18.3857 24.0077 18.3857H21.255V29.8336H18.9673V16.5627H24.0077C25.0346 16.5627 25.9065 16.745 26.6235 17.1096C27.3466 17.4681 27.8965 17.9664 28.2733 18.6044C28.65 19.2364 28.8384 19.9594 28.8384 20.7737C28.8384 21.6305 28.65 22.3657 28.2733 22.9794C27.8965 23.5931 27.3466 24.064 26.6235 24.3922C25.9065 24.7203 25.0346 24.8844 24.0077 24.8844Z" fill="white"/>
</svg>
